<svg id="Layer_1" data-name="Layer 1" xmlns="http://www.w3.org/2000/svg" viewBox="0 0 798.19 212.13"><defs><style>.cls-1,.cls-8{fill:none;}.cls-2{fill:#fff;}.cls-3{fill:#f06773;}.cls-4{fill:#45c2cc;}.cls-5{fill:#d288ba;}.cls-6{fill:#02b0e3;}.cls-7{fill:#ffc94c;}.cls-8{stroke:#fff;stroke-miterlimit:10;stroke-width:2px;}</style></defs><title>Website-Logo</title><path class="cls-1" d="M68,154.78a114.41,114.41,0,0,1-24.65-10q-.37.36-.78.69a84.51,84.51,0,0,0,51.51,43.33,102.92,102.92,0,0,1-17.51-26.67h-.1A8.57,8.57,0,0,1,68,154.78Z"/><path class="cls-1" d="M71.05,146.94a104.12,104.12,0,0,1-2.38-10.89,103,103,0,0,1-1.34-16.46,101.15,101.15,0,0,0-21.36,12,11.58,11.58,0,0,1,.54,7.94,108.28,108.28,0,0,0,22.86,9.26A8.56,8.56,0,0,1,71.05,146.94Z"/><path class="cls-1" d="M199.21,83.52a85.39,85.39,0,0,0-8.11-18.58,84.34,84.34,0,0,0-31-30.58,108.17,108.17,0,0,1,15.69,84.17c.28.19.55.39.82.6A108.37,108.37,0,0,0,199.21,83.52Z"/><path class="cls-1" d="M84.85,151.86a108.13,108.13,0,0,0,71.67-16.16c-.07-.13-.14-.25-.2-.38s-.23-.53-.34-.79l-.18-.52c-.1-.29-.19-.59-.27-.89s-.09-.33-.13-.5c-.07-.32-.13-.66-.18-1,0-.15-.05-.3-.07-.45a13.55,13.55,0,0,1-.08-1.43v-.06c0-.43,0-.86.06-1.28,0-.12,0-.25.05-.37,0-.29.08-.59.13-.87s.07-.3.1-.45.12-.51.2-.77.09-.29.13-.44.09-.23.13-.34a101.53,101.53,0,0,0-81.15-8.27l-1.2.39a97.85,97.85,0,0,0,1.23,17.78,100.23,100.23,0,0,0,2.17,10A8.56,8.56,0,0,1,84.85,151.86Z"/><path class="cls-1" d="M175.76,140.88q-.36.24-.75.45l-.29.17c-.34.18-.68.35-1,.5h0a11.08,11.08,0,0,1-1.14.42l-.32.09c-.28.08-.57.16-.86.22l-.39.08c-.29.06-.58.1-.87.14l-.37,0c-.41,0-.83.06-1.25.06h0c-.45,0-.89,0-1.32-.07a108,108,0,0,1-50.29,49.34,88.46,88.46,0,0,0,9.6-.39,84.71,84.71,0,0,0,62.17-37.28,102.11,102.11,0,0,0-12.23-14.2l-.29.22Z"/><path class="cls-1" d="M160.88,140.72l-.35-.27A114.3,114.3,0,0,1,83.81,158a8.46,8.46,0,0,1-1.53,1.89,96.72,96.72,0,0,0,22.35,30.88,101.93,101.93,0,0,0,56.6-49.78l-.17-.1Z"/><path class="cls-1" d="M180.92,124.88c.09.24.18.47.26.71s.11.4.17.59.13.49.19.74l.09.57c0,.27.09.54.12.81,0,.12,0,.25,0,.37,0,.34,0,.67,0,1,0,.16,0,.31,0,.47,0,.33,0,.66-.06,1s-.06.4-.09.6-.09.58-.15.86-.1.38-.15.56a7.44,7.44,0,0,1-.25.84c-.06.18-.12.36-.19.53s-.22.53-.34.79-.15.3-.23.45A107,107,0,0,1,192.06,149a84.57,84.57,0,0,0,9.51-55.34,114.09,114.09,0,0,1-21,30.34c.06.12.12.24.17.36S180.85,124.7,180.92,124.88Z"/><path class="cls-2" d="M46,131.56a101.15,101.15,0,0,1,21.36-12,103,103,0,0,0,1.34,16.46,104.12,104.12,0,0,0,2.38,10.89,8.52,8.52,0,0,1,5.4-1.93c.16,0,.32,0,.47,0a100.23,100.23,0,0,1-2.17-10,97.85,97.85,0,0,1-1.23-17.78l1.2-.39a101.53,101.53,0,0,1,81.15,8.27,13.27,13.27,0,0,1,3.37-5.16,107.54,107.54,0,0,0-85.35-9.31,96.75,96.75,0,0,1,8.36-31.46,9.39,9.39,0,0,1-5.52-2.76,102.83,102.83,0,0,0-9.19,36.41,107.47,107.47,0,0,0-25.45,13.88A11.83,11.83,0,0,1,46,131.56Z"/><path class="cls-2" d="M67.89,153.58a8.56,8.56,0,0,1,1.48-4.82,108.28,108.28,0,0,1-22.86-9.26,11.72,11.72,0,0,1-3.18,5.29,114.41,114.41,0,0,0,24.65,10A9.41,9.41,0,0,1,67.89,153.58Z"/><path class="cls-2" d="M196.41,61.83a90.55,90.55,0,0,0-33.91-33.2,12.5,12.5,0,0,1-7.34,9l-.22.08A101.88,101.88,0,0,1,170,116.4a13.36,13.36,0,0,1,5.83,2.13,108.17,108.17,0,0,0-15.69-84.17,84.34,84.34,0,0,1,31,30.58,85.39,85.39,0,0,1,8.11,18.58,108.37,108.37,0,0,1-22.56,35.61,13.47,13.47,0,0,1,3.88,4.84,114.09,114.09,0,0,0,21-30.34A84.57,84.57,0,0,1,192.06,149a107,107,0,0,0-11.72-13.21,13.42,13.42,0,0,1-4,4.7,102.11,102.11,0,0,1,12.23,14.2,84.71,84.71,0,0,1-62.17,37.28,88.46,88.46,0,0,1-9.6.39A108,108,0,0,0,167.1,143a13.35,13.35,0,0,1-5.87-2.05,101.93,101.93,0,0,1-56.6,49.78,96.72,96.72,0,0,1-22.35-30.88,8.49,8.49,0,0,1-5.73,2.3,102.92,102.92,0,0,0,17.51,26.67,84.51,84.51,0,0,1-51.51-43.33,11.75,11.75,0,0,1-5.68,2.46,90.78,90.78,0,0,0,65.65,49.2l1.61.26a90.75,90.75,0,0,0,59.58-11.14s15.33-8.49,23.38-19.44a90.72,90.72,0,0,0,9.32-105Z"/><path class="cls-2" d="M84.85,151.86a8.8,8.8,0,0,1,.17,1.72A8.53,8.53,0,0,1,83.81,158a114.3,114.3,0,0,0,76.72-17.5,13.35,13.35,0,0,1-4-4.75,108.13,108.13,0,0,1-71.67,16.16Z"/><path class="cls-3" d="M83.49,79.32a9.62,9.62,0,1,0-1.24-.09A10.19,10.19,0,0,0,83.49,79.32Z"/><path class="cls-4" d="M162.5,28.63c.05-.23.09-.46.13-.7s.06-.39.08-.6a10.6,10.6,0,0,0,.06-1.14v-.07a12.54,12.54,0,0,0-12.49-12.49h0q-.7,0-1.38.09l-.48.07c-.3.05-.61.1-.91.17l-.52.14c-.28.07-.55.16-.82.25l-.5.19c-.28.11-.56.24-.83.37l-.41.2a12.74,12.74,0,0,0-1.12.67c-.12.08-.23.18-.34.26s-.49.36-.72.56l-.42.38c-.19.17-.37.35-.55.54s-.27.29-.4.44-.33.39-.48.59l-.4.53a2.39,2.39,0,0,1-.13.21c-.16.24-.31.49-.46.75l-.14.26c-.14.27-.28.55-.4.84,0,.05-.05.11-.08.17a10.55,10.55,0,0,0-.39,1.07.74.74,0,0,0,0,.14c-.09.31-.18.63-.25.95l-.06.32c0,.28-.09.56-.13.85,0,.1,0,.21,0,.32,0,.38-.05.77-.05,1.16a12.49,12.49,0,0,0,15,12.24h0a11.61,11.61,0,0,0,1.16-.3c.12,0,.22-.09.34-.12l.59-.22.22-.08A12.5,12.5,0,0,0,162.5,28.63Z"/><path class="cls-5" d="M85,153.58a8.8,8.8,0,0,0-.17-1.72A8.56,8.56,0,0,0,76.92,145c-.15,0-.31,0-.47,0a8.56,8.56,0,0,0-8.56,8.57,9.41,9.41,0,0,0,.09,1.2,8.57,8.57,0,0,0,8.47,7.37h.1A8.59,8.59,0,0,0,85,153.58Z"/><path class="cls-6" d="M43.33,144.79a11.58,11.58,0,1,0-.78.69Q43,145.15,43.33,144.79Z"/><path class="cls-7" d="M155.74,125.5c0,.15-.09.29-.13.44s-.14.51-.2.77-.07.3-.1.45-.09.58-.13.87c0,.12,0,.25-.05.37,0,.42-.06.85-.06,1.28v.06a13.55,13.55,0,0,0,.08,1.43c0,.15,0,.3.07.45.05.34.11.68.18,1,0,.17.08.34.13.5s.17.6.27.89l.18.52c.11.26.22.53.34.79s.13.25.2.38a13.35,13.35,0,0,0,4,4.75l.35.27.18.12.17.1A13.35,13.35,0,0,0,167.1,143c.43,0,.87.07,1.32.07h0c.42,0,.84,0,1.25-.06l.37,0c.29,0,.58-.08.87-.14l.39-.08c.29-.06.58-.14.86-.22l.32-.09a11.08,11.08,0,0,0,1.14-.42h0c.36-.15.7-.32,1-.5l.29-.17q.39-.21.75-.45l.3-.2.29-.22a13.42,13.42,0,0,0,4-4.7c.08-.15.16-.3.23-.45s.23-.52.34-.79.13-.35.19-.53a7.44,7.44,0,0,0,.25-.84c.05-.18.11-.37.15-.56s.11-.57.15-.86.07-.39.09-.6,0-.65.06-1c0-.16,0-.31,0-.47,0-.34,0-.67,0-1,0-.12,0-.25,0-.37,0-.27-.08-.54-.12-.81l-.09-.57c-.06-.25-.13-.49-.19-.74s-.11-.39-.17-.59-.17-.47-.26-.71-.14-.37-.22-.55-.11-.24-.17-.36a13.47,13.47,0,0,0-3.88-4.84c-.27-.21-.54-.41-.82-.6A13.36,13.36,0,0,0,170,116.4l-.14,0-.72,0c-.23,0-.46,0-.69,0a13.84,13.84,0,0,0-2.68.26l-.17.05q-.56.12-1.08.27l-.31.11c-.3.1-.6.21-.89.33l-.36.16c-.27.12-.53.24-.79.38l-.37.21-.72.44-.35.25c-.23.16-.46.32-.68.5l-.3.26c-.18.15-.34.31-.51.47a13.27,13.27,0,0,0-3.37,5.16C155.83,125.27,155.78,125.38,155.74,125.5Z"/><path class="cls-2" d="M157.45,25.4v1.9a1,1,0,0,1-.92,1.06h-4.24v4.21a1,1,0,0,1-1.06.93h-1.9a1,1,0,0,1-1.06-.93V28.36H144a1,1,0,0,1-.92-1.06V25.4a1,1,0,0,1,.92-1.08h4.24V20.1a1,1,0,0,1,1.06-.92h1.9a1,1,0,0,1,1.06.92v4.22h4.24a1,1,0,0,1,.92,1.08Z"/><path class="cls-2" d="M238.16,177.84V110.7h29.07v67.14Z"/><path class="cls-4" d="M238.16,106V84.45h29.07V106Z"/><path class="cls-2" d="M317.89,177.84V84H281.84V59.07H383V84H347v93.85Z"/><path class="cls-2" d="M502.55,143.09a47.52,47.52,0,0,1-10.84,6.54,37.36,37.36,0,0,1-15.86,3.66q-15.62,0-24.58-10.73a37.81,37.81,0,0,1-9-25A35.11,35.11,0,0,1,451,93.6q8.72-10,24.83-10A37.77,37.77,0,0,1,491,87q7.8,3.42,10.46,5.41c1.77,1.33,3.16,2.43,4.15,3.32L519,73.82l-1.66-1.67a33.64,33.64,0,0,0-5.65-4.24q-3.83-2.4-8.8-4.9a57.09,57.09,0,0,0-12.55-4.24A69.9,69.9,0,0,0,474.52,57Q447.78,57,430,74.56t-17.78,43.65q0,26.76,17.36,44.22t44.93,17.46a66.07,66.07,0,0,0,16.86-2.17,65.32,65.32,0,0,0,13.37-4.82,69.18,69.18,0,0,0,9.72-6.07c1.61-1.19,2.91-2.2,3.92-3L503.12,142.6Z"/><path class="cls-4" d="M507.41,138.69l-4,3.66-.3.28,15.27,21.2c.9-.73,1.56-1.3,2-1.72a26.45,26.45,0,0,0,2-2.16Z"/><path class="cls-2" d="M537,152.27a20.8,20.8,0,0,1,5.64-14.7,31.34,31.34,0,0,1,14.54-8.64A109.34,109.34,0,0,1,573,125.44a106.44,106.44,0,0,1,13.62-.91h1.16V123q0-9.47-12.62-9.46a31.27,31.27,0,0,0-10.55,2.07,61.36,61.36,0,0,0-9.22,4.07l-3.32,2-10-20.27a44.66,44.66,0,0,1,4.74-3.16q3.07-1.82,12.46-4.9A59.94,59.94,0,0,1,578,90.31q18.11,0,28.32,9.3t10.22,25.58v52.66H590.3V172.7l.33-5.32h-.33c-.23.34-.5.78-.84,1.33a21.18,21.18,0,0,1-2.57,3,27.33,27.33,0,0,1-4.57,3.82,26.08,26.08,0,0,1-6.89,3,32.2,32.2,0,0,1-9.39,1.33q-12.28,0-20.68-7.56T537,152.27Zm28.9-1.5a6.83,6.83,0,0,0,2.07,5.15,8.44,8.44,0,0,0,6.07,2q5.47,0,9.8-4.82a15.2,15.2,0,0,0,4.32-10.3V141h-2.66a36.17,36.17,0,0,0-13.71,2.41Q565.88,145.8,565.88,150.77Z"/><path class="cls-2" d="M631.23,177.84V92.29H658.8v14.45l-.33,5.32h.33a31.24,31.24,0,0,1,10.38-15.12A26.1,26.1,0,0,1,686,90.8l3.32.33v28.24a27.76,27.76,0,0,0-5.81-.5q-17.28,0-22.09,14.95a39.44,39.44,0,0,0-1.5,11.63v32.39Z"/><path class="cls-2" d="M758.93,152.59q-15.28,0-15.28-11V119.37h17.94V91.13H743.65V68.37H715.74V91.13H704v28.24h11v26.08a35.76,35.76,0,0,0,2,12.29,23.28,23.28,0,0,0,5.48,8.88,39.07,39.07,0,0,0,7.39,5.73,30.72,30.72,0,0,0,8.8,3.49,72.83,72.83,0,0,0,8.64,1.58,69.16,69.16,0,0,0,7.72.42,51.54,51.54,0,0,0,7.81-.5V152.42Z"/><rect class="cls-8" x="-106.06" y="-368.23" width="1440.76" height="719.71"/></svg>