<svg id="Layer_1" data-name="Layer 1" xmlns="http://www.w3.org/2000/svg" viewBox="0 0 250 250"><defs><style>.cls-1,.cls-8{fill:none;}.cls-2{fill:#f06773;}.cls-3{fill:#45c2cc;}.cls-4{fill:#d288ba;}.cls-5{fill:#02b0e3;}.cls-6{fill:#ffc94c;}.cls-7{fill:#fff;}.cls-8{stroke:#fff;stroke-miterlimit:10;stroke-width:2px;}</style></defs><title>Website-Logo</title><path class="cls-1" d="M69.51,181.1a131.57,131.57,0,0,1-28.38-11.5c-.29.28-.59.54-.91.8a97.36,97.36,0,0,0,59.33,49.89,118,118,0,0,1-20.16-30.71h-.12A9.86,9.86,0,0,1,69.51,181.1Z"/><path class="cls-1" d="M73.05,172.07a119.38,119.38,0,0,1-4.29-31.5,116.28,116.28,0,0,0-24.59,13.79,13.5,13.5,0,0,1,.62,9.14,124.8,124.8,0,0,0,26.33,10.67A9.88,9.88,0,0,1,73.05,172.07Z"/><path class="cls-1" d="M220.64,99a97.53,97.53,0,0,0-45-56.61,124.53,124.53,0,0,1,18.06,96.93c.32.21.64.44.94.68A124.62,124.62,0,0,0,220.64,99Z"/><path class="cls-1" d="M88.94,177.74a124.48,124.48,0,0,0,82.53-18.61c-.07-.15-.15-.29-.22-.44-.14-.3-.27-.6-.39-.91s-.15-.39-.22-.59-.21-.68-.31-1c-.05-.19-.1-.38-.14-.57-.09-.38-.15-.77-.21-1.16,0-.17-.06-.34-.08-.52a14.93,14.93,0,0,1-.09-1.65s0,0,0-.06a14.52,14.52,0,0,1,.08-1.48c0-.14,0-.28.05-.42,0-.34.09-.68.16-1,0-.17.07-.34.11-.51a8.93,8.93,0,0,1,.23-.89c0-.17.1-.34.15-.51l.15-.39a116.88,116.88,0,0,0-93.46-9.53l-1.38.46a111.27,111.27,0,0,0,3.92,32A9.87,9.87,0,0,1,88.94,177.74Z"/><path class="cls-1" d="M193.64,165.09c-.28.18-.57.36-.87.53l-.33.18a13.25,13.25,0,0,1-1.2.58l0,0a13.56,13.56,0,0,1-1.31.48l-.36.1c-.33.1-.66.18-1,.26l-.46.09c-.33.06-.66.11-1,.15l-.43.05a13.59,13.59,0,0,1-1.44.08h0c-.51,0-1,0-1.52-.09a124.46,124.46,0,0,1-57.91,56.82,100,100,0,0,0,11.05-.44A97.52,97.52,0,0,0,208.39,181a116.82,116.82,0,0,0-14.08-16.36l-.34.25Z"/><path class="cls-1" d="M176.5,164.9c-.14-.09-.27-.2-.41-.3a131.61,131.61,0,0,1-88.35,20.15A9.74,9.74,0,0,1,86,186.93a111.36,111.36,0,0,0,25.74,35.56,117.47,117.47,0,0,0,65.19-57.32l-.2-.12Z"/><path class="cls-1" d="M199.58,146.67c.1.27.21.54.3.82s.12.45.19.68.15.56.21.85.08.44.11.66.11.61.14.93c0,.14,0,.28,0,.43,0,.38.06.77.06,1.16,0,.18,0,.36,0,.54,0,.38,0,.76-.07,1.13s-.07.46-.1.69-.11.66-.18,1-.11.44-.16.66-.19.64-.29,1-.15.41-.23.61-.25.61-.39.91-.17.35-.26.52a122.3,122.3,0,0,1,13.49,15.21,97.52,97.52,0,0,0,11-63.74,131.58,131.58,0,0,1-24.23,35c.06.14.13.28.2.42S199.5,146.46,199.58,146.67Z"/><path d="M44.17,154.36a116.28,116.28,0,0,1,24.59-13.79,119.38,119.38,0,0,0,4.29,31.5,9.82,9.82,0,0,1,6.22-2.22l.54,0a111.27,111.27,0,0,1-3.92-32l1.38-.46A116.88,116.88,0,0,1,170.73,147a15.34,15.34,0,0,1,3.88-5.94,123.88,123.88,0,0,0-98.29-10.73A111.44,111.44,0,0,1,86,94.1a10.84,10.84,0,0,1-6.36-3.19A118.58,118.58,0,0,0,69,132.85a123.9,123.9,0,0,0-29.31,16A13.66,13.66,0,0,1,44.17,154.36Z"/><path d="M69.41,179.72a9.8,9.8,0,0,1,1.71-5.55A124.8,124.8,0,0,1,44.79,163.5a13.48,13.48,0,0,1-3.66,6.1,131.57,131.57,0,0,0,28.38,11.5A10.42,10.42,0,0,1,69.41,179.72Z"/><path d="M217.42,74.06a104.43,104.43,0,0,0-39-38.24,14.45,14.45,0,0,1-8.46,10.37l-.25.09A117.43,117.43,0,0,1,187,136.9a15.32,15.32,0,0,1,6.71,2.46,124.53,124.53,0,0,0-18.06-96.93,97.53,97.53,0,0,1,45,56.61,124.62,124.62,0,0,1-26,41,15.52,15.52,0,0,1,4.48,5.58,131.58,131.58,0,0,0,24.23-34.95,97.52,97.52,0,0,1-11,63.74,122.3,122.3,0,0,0-13.49-15.21,15.31,15.31,0,0,1-4.6,5.41A116.82,116.82,0,0,1,208.39,181,97.52,97.52,0,0,1,136.8,223.9a100,100,0,0,1-11.05.44,124.46,124.46,0,0,0,57.91-56.82,15.35,15.35,0,0,1-6.75-2.35,117.47,117.47,0,0,1-65.19,57.32A111.36,111.36,0,0,1,86,186.93a9.77,9.77,0,0,1-6.59,2.65,118,118,0,0,0,20.16,30.71A97.36,97.36,0,0,1,40.22,170.4a13.62,13.62,0,0,1-6.53,2.83,104.55,104.55,0,0,0,75.6,56.65l1.85.3a104.61,104.61,0,0,0,68.62-12.82s17.65-9.78,26.92-22.39A104.45,104.45,0,0,0,217.42,74.06Z"/><path d="M88.94,177.74a9.92,9.92,0,0,1,.2,2,9.77,9.77,0,0,1-1.4,5,131.61,131.61,0,0,0,88.35-20.15,15.48,15.48,0,0,1-4.62-5.47,124.48,124.48,0,0,1-82.53,18.61Z"/><path class="cls-2" d="M87.38,94.2A11,11,0,1,0,86,94.1,11.19,11.19,0,0,0,87.38,94.2Z"/><path class="cls-3" d="M178.37,35.82c0-.26.1-.53.14-.8s.08-.45.1-.69c0-.43.06-.87.06-1.31,0,0,0-.05,0-.08a14.41,14.41,0,0,0-14.39-14.38h0c-.54,0-1.08,0-1.6.09l-.54.09c-.36.05-.71.11-1.05.19l-.6.16c-.32.09-.64.19-1,.3s-.39.13-.58.21-.64.27-1,.43l-.47.22a13.8,13.8,0,0,0-1.29.78c-.14.09-.26.2-.4.3A10,10,0,0,0,155,22c-.17.14-.33.29-.49.44s-.43.4-.63.62-.31.33-.46.51-.38.45-.55.68-.32.4-.46.61l-.15.24c-.19.28-.37.57-.53.86-.06.1-.11.2-.16.3-.17.31-.32.64-.47,1l-.09.2c-.17.41-.32.82-.45,1.24a.94.94,0,0,0,0,.16c-.11.36-.21.72-.29,1.1,0,.12,0,.24-.07.36-.06.32-.11.65-.15,1,0,.12,0,.24,0,.37,0,.44-.07.89-.07,1.34a14.4,14.4,0,0,0,14.39,14.39,14.83,14.83,0,0,0,2.92-.3h0c.45-.1.9-.21,1.34-.35l.38-.14.69-.25.25-.09A14.45,14.45,0,0,0,178.37,35.82Z"/><path class="cls-4" d="M89.14,179.72a9.85,9.85,0,0,0-9.33-9.84l-.54,0a9.87,9.87,0,0,0-9.86,9.87,10.42,10.42,0,0,0,.1,1.38,9.86,9.86,0,0,0,9.76,8.48h.12a9.91,9.91,0,0,0,9.75-9.86Z"/><path class="cls-5" d="M41.13,169.6a13.57,13.57,0,0,0,3-15.24,13.57,13.57,0,1,0-12.43,19,14,14,0,0,0,1.95-.15,13.62,13.62,0,0,0,6.53-2.83C40.54,170.14,40.84,169.88,41.13,169.6Z"/><path class="cls-6" d="M170.58,147.38c-.05.17-.11.34-.15.51a8.93,8.93,0,0,0-.23.89c0,.17-.08.34-.11.51-.07.33-.12.67-.16,1,0,.14,0,.28-.05.42a14.52,14.52,0,0,0-.08,1.48s0,0,0,.06a14.93,14.93,0,0,0,.09,1.65c0,.18.06.35.08.52.06.39.12.78.21,1.16,0,.19.09.38.14.57.1.35.2.69.31,1s.14.39.22.59.25.61.39.91c.07.15.15.29.22.44a15.48,15.48,0,0,0,4.62,5.47c.14.1.27.21.41.3l.21.15.2.12a15.35,15.35,0,0,0,6.75,2.35c.5,0,1,.09,1.52.09h0a13.59,13.59,0,0,0,1.44-.08l.43-.05c.34,0,.67-.09,1-.15l.46-.09c.33-.08.66-.16,1-.26l.36-.1a13.56,13.56,0,0,0,1.31-.48l0,0a13.25,13.25,0,0,0,1.2-.58l.33-.18c.3-.17.59-.35.87-.53l.33-.23.34-.25a15.31,15.31,0,0,0,4.6-5.41c.09-.17.18-.34.26-.52s.27-.6.39-.91.16-.4.23-.61.2-.64.29-1,.11-.44.16-.66.13-.65.18-1,.08-.46.1-.69.06-.75.07-1.13c0-.18,0-.36,0-.54,0-.39,0-.78-.06-1.16,0-.15,0-.29,0-.43,0-.32-.09-.62-.14-.93s-.06-.45-.11-.66-.14-.57-.21-.85-.12-.46-.19-.68-.2-.55-.3-.82-.16-.42-.25-.63-.14-.28-.2-.42a15.52,15.52,0,0,0-4.48-5.58c-.3-.24-.62-.47-.94-.68A15.32,15.32,0,0,0,187,136.9l-.16,0c-.27,0-.55,0-.83,0s-.53,0-.8,0a15.54,15.54,0,0,0-3.08.31l-.2.05c-.42.09-.83.2-1.24.32l-.36.12c-.34.12-.69.24-1,.38l-.41.19c-.31.14-.61.28-.91.44l-.43.24-.82.5c-.14.09-.27.19-.4.29s-.53.38-.78.58l-.35.29c-.21.18-.4.36-.59.55a15.34,15.34,0,0,0-3.88,5.94Z"/><path class="cls-7" d="M172.55,32.11v2.18a1.16,1.16,0,0,1-1.07,1.22H166.6v4.86a1.14,1.14,0,0,1-1.22,1.06H163.2A1.14,1.14,0,0,1,162,40.37V35.51H157.1A1.16,1.16,0,0,1,156,34.29V32.11a1.17,1.17,0,0,1,1.07-1.25H162V26a1.14,1.14,0,0,1,1.22-1.07h2.18A1.14,1.14,0,0,1,166.6,26v4.85h4.88a1.17,1.17,0,0,1,1.07,1.25Z"/><rect class="cls-8" x="-1079.65" y="-79.87" width="1440.76" height="719.71"/></svg>